<?xml version="1.0" encoding="iso-8859-1"?>
<!-- Generator: Adobe Illustrator 19.0.0, SVG Export Plug-In . SVG Version: 6.00 Build 0)  -->
<svg version="1.1" id="Capa_1" xmlns="http://www.w3.org/2000/svg" xmlns:xlink="http://www.w3.org/1999/xlink" x="0px" y="0px"
	 viewBox="0 0 512.001 512.001" style="enable-background:new 0 0 512.001 512.001;" xml:space="preserve">
<path style="fill:#FF9F00;" d="M511.919,226.457c-0.436-4.146-2.569-7.927-5.89-10.444l-40.558-30.721l14.757-48.69
	c1.209-3.99,0.713-8.302-1.372-11.912c-2.084-3.61-5.57-6.196-9.63-7.144l-49.547-11.569l-6.325-50.483
	c-0.519-4.136-2.726-7.874-6.098-10.324c-3.371-2.451-7.607-3.397-11.703-2.61l-49.968,9.585L319.27,8.598
	c-2.157-3.567-5.693-6.084-9.771-6.95c-4.078-0.868-8.332-0.008-11.752,2.375l-41.747,29.079L214.251,4.024
	c-3.42-2.381-7.674-3.24-11.753-2.375c-4.078,0.866-7.613,3.382-9.769,6.951l-26.312,43.546l-49.967-9.584
	c-4.094-0.784-8.33,0.159-11.703,2.61c-3.372,2.451-5.581,6.187-6.098,10.324l-6.325,50.483l-49.548,11.569
	c-4.06,0.948-7.545,3.534-9.63,7.144c-2.085,3.611-2.581,7.922-1.372,11.911l14.754,48.691l-40.554,30.72
	c-3.323,2.517-5.455,6.298-5.891,10.443c-0.435,4.146,0.864,8.287,3.592,11.44l33.281,38.481l-24.554,44.56
	c-2.011,3.651-2.423,7.972-1.134,11.937c1.288,3.963,4.16,7.218,7.934,8.989l46.056,21.616l-4.309,50.696
	c-0.353,4.154,1.029,8.269,3.819,11.367c2.789,3.098,6.737,4.902,10.904,4.986l50.87,1.014l16.681,48.064
	c1.367,3.938,4.302,7.136,8.111,8.831c3.808,1.697,8.149,1.738,11.99,0.12l46.886-19.763l34.79,37.124
	c2.851,3.042,6.834,4.768,11.002,4.768s8.151-1.726,11.002-4.768l34.79-37.124l46.882,19.763c3.842,1.617,8.181,1.574,11.99-0.12
	c3.809-1.695,6.746-4.891,8.112-8.83l16.684-48.065l50.867-1.014c4.169-0.083,8.115-1.888,10.905-4.986
	c2.789-3.098,4.172-7.212,3.819-11.367l-4.309-50.696l46.058-21.616c3.775-1.771,6.646-5.026,7.936-8.99
	c1.288-3.963,0.877-8.285-1.135-11.937l-24.557-44.559l33.283-38.481C511.053,234.744,512.353,230.602,511.919,226.457z"/>
<path style="fill:#F77E00;" d="M511.919,226.457c-0.436-4.146-2.569-7.927-5.89-10.444l-40.558-30.721l14.757-48.69
	c1.209-3.99,0.713-8.302-1.372-11.912c-2.084-3.61-5.57-6.196-9.63-7.144l-49.547-11.569l-6.325-50.483
	c-0.519-4.136-2.726-7.874-6.098-10.324c-3.371-2.451-7.607-3.397-11.703-2.61l-49.968,9.585L319.27,8.598
	c-2.157-3.567-5.693-6.084-9.771-6.95c-4.078-0.868-8.332-0.008-11.752,2.375l-41.747,29.079v477.579l0,0
	c4.168,0,8.151-1.726,11.002-4.768l34.79-37.124l46.882,19.763c3.842,1.617,8.181,1.574,11.99-0.12
	c3.809-1.695,6.746-4.891,8.112-8.83l16.684-48.065l50.867-1.014c4.169-0.083,8.115-1.888,10.905-4.986
	c2.789-3.098,4.172-7.212,3.819-11.367l-4.309-50.696l46.058-21.616c3.775-1.771,6.646-5.026,7.936-8.99
	c1.288-3.963,0.877-8.285-1.135-11.937l-24.557-44.559l33.283-38.481C511.053,234.744,512.353,230.602,511.919,226.457z"/>
<path style="fill:#FFDA2D;" d="M256.001,111.723c-79.556,0-144.278,64.723-144.278,144.278s64.723,144.278,144.278,144.278
	S400.278,335.555,400.278,256S335.555,111.723,256.001,111.723z"/>
<g>
	<path style="fill:#FF9F00;" d="M256.001,111.723L256.001,111.723v288.556l0,0c79.555,0,144.278-64.723,144.278-144.278
		S335.555,111.723,256.001,111.723z"/>
	<path style="fill:#FF9F00;" d="M239.85,303.378c-3.859,0-7.718-1.473-10.661-4.416l-32.301-32.3
		c-5.887-5.887-5.887-15.434,0-21.323c5.887-5.887,15.434-5.889,21.323,0l21.639,21.638l53.938-53.937
		c5.887-5.887,15.434-5.889,21.323,0c5.888,5.887,5.888,15.435,0,21.323l-64.6,64.599
		C247.568,301.905,243.709,303.378,239.85,303.378z"/>
</g>
<path style="fill:#F77E00;" d="M315.112,213.04c-5.888-5.889-15.435-5.887-21.323,0L256,250.829v42.645l59.112-59.111
	C321,228.474,321,218.927,315.112,213.04z"/>
<g>
</g>
<g>
</g>
<g>
</g>
<g>
</g>
<g>
</g>
<g>
</g>
<g>
</g>
<g>
</g>
<g>
</g>
<g>
</g>
<g>
</g>
<g>
</g>
<g>
</g>
<g>
</g>
<g>
</g>
</svg>
