<svg id="Layer_1" enable-background="new 0 0 512 512" height="512" viewBox="0 0 512 512" width="512" xmlns="http://www.w3.org/2000/svg"><g><ellipse cx="363.349" cy="310.968" fill="#ffd15b" rx="43.169" ry="141.393" transform="matrix(.277 -.961 .961 .277 -36.109 573.946)"/><path d="m375.32 269.492c-27.934-8.055-54.639-12.966-77.502-14.778 14.864 2.566 30.649 6.178 46.848 10.849 75.032 21.636 130.498 57.744 123.887 80.651-4.15 14.379-31.776 20.135-70.327 17.079 53.984 9.319 95.797 4.811 100.981-13.151 6.612-22.906-48.854-59.014-123.887-80.65z" fill="#ffc344"/><g><g><path d="m41.599 115.047c-2.126 0-4.235-.902-5.715-2.657-.895-1.062-21.795-26.462-11.663-66.343 1.021-4.015 5.097-6.444 9.116-5.422 4.015 1.02 6.442 5.101 5.423 9.116-8.166 32.143 7.933 52.179 8.621 53.016 2.623 3.185 2.194 7.906-.976 10.547-1.406 1.17-3.111 1.743-4.806 1.743z" fill="#47a920"/></g><g><path d="m52.508 106.656c-2.904 0-5.66-1.694-6.876-4.533-.547-1.276-13.137-31.661 8.18-66.861 2.146-3.544 6.758-4.674 10.3-2.531 3.543 2.146 4.676 6.757 2.53 10.3-17.18 28.371-7.619 52.225-7.204 53.227 1.58 3.811-.205 8.202-4.007 9.804-.956.403-1.948.594-2.923.594z" fill="#47a920"/></g></g><path d="m218.618 212.458s167.418 45.338 281.081 64.382c10.192 1.708 15.503 13.106 10.237 21.992-17.652 29.786-61.788 82.449-146.471 63.631-115.972-25.77-171-108.548-171-108.548z" fill="#68ca44"/><path d="m499.699 276.84c-113.664-19.045-281.081-64.382-281.081-64.382l-3.919 9.107c51.924 13.529 168.355 42.888 254.159 57.265 10.192 1.708 15.503 13.106 10.236 21.992-13.043 22.009-40.55 56.499-88.184 65.424 66.968 3.294 103.389-41.029 119.025-67.413 5.266-8.887-.044-20.285-10.236-21.993z" fill="#4fc123"/><path d="m243.161 269.953c-1.233 12.47-58.509-10.109-105.633-51.244s-61.342-88.777-59.972-102.635c2.078-21.023 39.749-2.849 86.873 38.286s82.312 79.383 78.732 115.593z" fill="#68ca44"/><path d="m164.429 154.36c-45.622-39.823-82.381-58.124-86.564-40.175 15.021 7.713 34.367 21.59 55.659 40.175 45.662 39.859 80.117 77.008 78.954 112.218 17.759 7.436 30.119 9.095 30.684 3.375 3.579-36.21-31.609-74.459-78.733-115.593z" fill="#4fc123"/><path d="m82.886 155.805c-23.773 23.24-38.83 42.215-55.063 33.408-16.233-8.808-17.9-38.045-3.723-65.303s39.789-35.973 57.122-29.71c18.64 6.734 23.477 40.28 1.664 61.605z" fill="#97da7b"/><path d="m81.222 94.199c-8.129-2.937-18.079-2.579-27.816 1.44 16.017 9.145 19.126 40.074-1.425 60.166-11.779 11.515-21.417 21.978-30.12 28.538 1.701 1.98 3.683 3.633 5.963 4.87 16.233 8.808 31.29-10.167 55.063-33.408 21.812-21.326 16.975-54.871-1.665-61.606z" fill="#80d261"/><ellipse cx="31.224" cy="120.438" fill="#685e68" rx="17.092" ry="17.102" transform="matrix(.029 -1 1 .029 -90.077 148.119)"/><path d="m158.765 250.333c-11.336 47.549-33.957 105.799-44.151 103.371s-4.101-64.614 7.235-112.164 23.623-62.456 33.817-60.028c10.195 2.429 14.435 21.272 3.099 68.821z" fill="#97da7b"/><path d="m38.127 407.024-20.44-152.077c-.553-4.106-4.325-6.984-8.433-6.434-4.105.552-6.986 4.327-6.435 8.432l19.905 148.085c-9.343 9.019-19.846 26.795-7.924 45.509 1.43 2.245 3.854 3.471 6.332 3.471 1.379 0 2.774-.38 4.022-1.175 3.494-2.226 4.521-6.862 2.296-10.355-3.87-6.076-3.938-12.273-.205-18.946 3.212-5.742 8.014-9.56 8.037-9.578 2.117-1.638 3.201-4.279 2.845-6.932z" fill="#47a920"/><g fill="#47a920"><path d="m226.748 264.331c-4.122.41-7.13 4.084-6.72 8.206 1.338 13.437.846 34.561-3.796 43.416l-37.794-11.678c-2.101-.649-4.384-.344-6.239.837-1.856 1.181-3.101 3.117-3.403 5.296l-18.137 130.572-28.645 12.222c-3.81 1.625-5.58 6.032-3.955 9.842 1.216 2.85 3.987 4.559 6.902 4.559.981 0 1.979-.194 2.939-.604l32.546-13.887c2.421-1.033 4.123-3.26 4.485-5.867l17.507-126.035 34.226 10.575c2.454.759 5.126.208 7.08-1.458 15.012-12.799 11.971-51.624 11.209-59.277-.408-4.121-4.063-7.132-8.205-6.719z"/><path d="m427.91 465.553-24.57-5.799-24.599-130.091c-.377-1.992-1.544-3.748-3.236-4.865-1.693-1.118-3.764-1.504-5.745-1.066-33.657 7.406-86.143 18.736-102.719 21.813-6.325-18.62-3.623-47.471-3.577-47.948.407-4.122-2.604-7.794-6.727-8.201-4.1-.407-7.793 2.604-8.201 6.726-.157 1.589-3.723 39.171 7.073 60.985 2.604 5.256 7.604 4.358 12.896 3.406 2.918-.524 7.154-1.348 12.592-2.45 9.096-1.842 21.726-4.494 37.539-7.881 18.345-3.929 36.82-7.96 46.802-10.145l24.069 127.292c.55 2.911 2.763 5.226 5.646 5.906l29.312 6.917c.579.137 1.158.203 1.729.202 3.398 0 6.478-2.327 7.293-5.779.951-4.031-1.546-8.071-5.577-9.022z"/></g><path d="m24.544 291.179c-32.586-31.205-25.779-38.229-18.529-45.793s24.002-6.768 56.588 24.436 68.666 81.001 61.417 88.565c-7.251 7.564-66.89-36.004-99.476-67.208z" fill="#97da7b"/><path d="m62.602 269.822c-32.586-31.204-49.338-31.999-56.588-24.436-.751.784-1.495 1.563-2.193 2.363 7.645 4.45 16.851 11.516 27.875 22.073 23.554 22.555 48.929 54.82 58.451 73.833 17.006 11.316 30.641 18.102 33.871 14.732 7.25-7.564-28.83-57.36-61.416-88.565z" fill="#80d261"/></g></svg>