<svg id="Layer_1" height="512" viewBox="0 0 512 512" width="512" xmlns="http://www.w3.org/2000/svg" data-name="Layer 1"><g fill="#fedb41"><path d="m270.8 108.121a6 6 0 0 1 -5.031-9.263l21.081-32.55a5.994 5.994 0 0 1 1.781-1.779l48.9-31.579a6 6 0 0 1 6.51 10.081l-47.815 30.881-20.38 31.47a6 6 0 0 1 -5.046 2.739z"/><path d="m240.956 108.121a6 6 0 0 1 -5.042-2.739l-20.38-31.47-47.819-30.881a6 6 0 0 1 6.51-10.081l48.9 31.579a6.005 6.005 0 0 1 1.781 1.779l21.08 32.55a6 6 0 0 1 -5.03 9.263z"/><path d="m449 476.951a6.091 6.091 0 0 1 -1.077-.1c-15.684-2.843-36.518-44.059-39.453-58.716-.952-4.769-15.739-14.1-41.029-19.228a6 6 0 1 1 2.384-11.761c7.779 1.577 46.765 10.369 50.411 28.637 1.366 6.813 6.92 19.159 13.51 30.018 9.058 14.929 14.963 19 16.318 19.242a6 6 0 0 1 -1.064 11.908z"/><path d="m444.927 313.961a6.036 6.036 0 0 1 -1.081-.1c-15.685-2.854-36.515-44.071-39.449-58.725-.955-4.766-15.745-14.1-41.03-19.228a6 6 0 0 1 2.385-11.761c7.776 1.577 46.753 10.369 50.411 28.633 1.366 6.821 6.922 19.17 13.511 30.031 9.058 14.933 14.965 19 16.32 19.244a6 6 0 0 1 -1.067 11.9z"/><path d="m64.023 313.961a6 6 0 0 1 -1.068-11.9c1.355-.247 7.261-4.315 16.318-19.247 6.591-10.864 12.143-23.21 13.5-30.024 3.659-18.269 42.644-27.06 50.421-28.637a6 6 0 0 1 2.387 11.761c-18.723 3.808-39.682 12.443-41.041 19.228-2.92 14.645-23.74 55.858-39.435 58.721a6.047 6.047 0 0 1 -1.082.098z"/><path d="m63 476.951a6 6 0 0 1 -1.064-11.905c1.355-.247 7.26-4.313 16.318-19.242 6.59-10.859 12.144-23.2 13.511-30.022 3.645-18.264 42.631-27.056 50.41-28.633a6 6 0 0 1 2.386 11.761c-18.721 3.808-39.675 12.441-41.03 19.224-2.936 14.661-23.77 55.877-39.454 58.72a6.091 6.091 0 0 1 -1.077.097z"/><path d="m336.224 159.55a6 6 0 0 1 -.5-11.979l25.928-2.2 24.966-48.009a6 6 0 0 1 4.531-3.179l30.56-4.07a6 6 0 0 1 1.584 11.894l-27.468 3.659-25.051 48.172a6 6 0 0 1 -4.815 3.21l-29.22 2.48c-.174.015-.345.022-.515.022z"/><path d="m174.957 159.55c-.17 0-.342-.007-.514-.022l-29.23-2.48a6 6 0 0 1 -4.817-3.211l-25.041-48.171-27.477-3.658a6 6 0 0 1 1.584-11.9l30.57 4.07a6 6 0 0 1 4.531 3.18l24.957 48.009 25.937 2.2a6 6 0 0 1 -.5 11.979z"/></g><path d="m345.69 206.94c27.12 28.05 44.15 68.62 44.15 113.75 0 84.68-92.7 153.32-133.45 153.32-.17 0-.34 0-.51-.01v-177.25l89.65-89.65z" fill="#f4b844"/><path d="m345.53 206.77c.05.06.11.11.16.17l-.16.16-89.65 89.65v-159.94h42.28a47.507 47.507 0 0 1 47.37 47.37z" fill="#fedb41"/><path d="m297.65 136.81h-83.54c0-11.26 18.7-37.7 41.77-37.7s41.77 26.44 41.77 37.7z" fill="#00acea"/><path d="m255.88 296.75v177.25c-41.02-.56-133.96-68.98-133.96-153.31 0-45.13 17.03-85.7 44.15-113.75l.16.16z" fill="#00ceb4"/><path d="m255.88 137.49v159.26l-89.65-89.65-.16-.16c.05-.06.11-.11.16-.17v-22.59a47.507 47.507 0 0 1 47.37-47.37h42.28z" fill="#00efd1"/></svg>