<svg height="480pt" viewBox="0 -31 480 479" width="480pt" xmlns="http://www.w3.org/2000/svg"><path d="m24 64.5h432v288c0 17.671875-14.328125 32-32 32h-368c-17.671875 0-32-14.328125-32-32zm0 0" fill="#f4f4e6"/><path d="m248 208.5h32c26.507812 0 48 21.492188 48 48h-32c-26.507812 0-48-21.492188-48-48zm0 0" fill="#c8d952"/><path d="m248 136.5h32c26.507812 0 48 21.492188 48 48h-32c-26.507812 0-48-21.492188-48-48zm0 0" fill="#c8d952"/><path d="m376 256.5h-32c0-26.507812 21.492188-48 48-48h32c0 26.507812-21.492188 48-48 48zm0 0" fill="#c8d952"/><path d="m376 184.5h-32c0-26.507812 21.492188-48 48-48h32c0 26.507812-21.492188 48-48 48zm0 0" fill="#c8d952"/><path d="m72 384.5h96v32h-96zm0 0" fill="#d3843d"/><path d="m312 384.5h96v32h-96zm0 0" fill="#d3843d"/><path d="m8 .5h464v64h-464zm0 0" fill="#d3843d"/><path d="m296 40.5h-288c-4.417969 0-8-3.582031-8-8s3.582031-8 8-8h288c4.417969 0 8 3.582031 8 8s-3.582031 8-8 8zm0 0" fill="#ffd782"/><path d="m344 40.5h-16c-4.417969 0-8-3.582031-8-8s3.582031-8 8-8h16c4.417969 0 8 3.582031 8 8s-3.582031 8-8 8zm0 0" fill="#ffd782"/><path d="m472 40.5h-96c-4.417969 0-8-3.582031-8-8s3.582031-8 8-8h96c4.417969 0 8 3.582031 8 8s-3.582031 8-8 8zm0 0" fill="#ffd782"/><path d="m56 384.5h368c17.671875 0 32-14.328125 32-32v-88c-16 0-40 16-80 24-29.058594 5.117188-58.496094 7.792969-88 8 0 0-104 8-176-8s-88 0-88 0v64c0 17.671875 14.328125 32 32 32zm0 0" fill="#ffd782"/><g fill="#d3843d"><path d="m88 328.5h-8c-4.417969 0-8-3.582031-8-8s3.582031-8 8-8h8c4.417969 0 8 3.582031 8 8s-3.582031 8-8 8zm0 0"/><path d="m136 352.5h-8c-4.417969 0-8-3.582031-8-8s3.582031-8 8-8h8c4.417969 0 8 3.582031 8 8s-3.582031 8-8 8zm0 0"/><path d="m208 336.5h-8c-4.417969 0-8-3.582031-8-8s3.582031-8 8-8h8c4.417969 0 8 3.582031 8 8s-3.582031 8-8 8zm0 0"/><path d="m272 360.5h-8c-4.417969 0-8-3.582031-8-8s3.582031-8 8-8h8c4.417969 0 8 3.582031 8 8s-3.582031 8-8 8zm0 0"/><path d="m328 336.5h-8c-4.417969 0-8-3.582031-8-8s3.582031-8 8-8h8c4.417969 0 8 3.582031 8 8s-3.582031 8-8 8zm0 0"/><path d="m392 352.5h-8c-4.417969 0-8-3.582031-8-8s3.582031-8 8-8h8c4.417969 0 8 3.582031 8 8s-3.582031 8-8 8zm0 0"/><path d="m416 320.5h-8c-4.417969 0-8-3.582031-8-8s3.582031-8 8-8h8c4.417969 0 8 3.582031 8 8s-3.582031 8-8 8zm0 0"/></g><path d="m336 296.5c-4.417969 0-8-3.582031-8-8v-144c0-4.417969 3.582031-8 8-8s8 3.582031 8 8v144c0 4.417969-3.582031 8-8 8zm0 0" fill="#c8d952"/><path d="m141.65625 258.84375c-3.125-3.121094-8.1875-3.121094-11.3125 0l-10.34375 10.34375v-28.6875c0-4.417969-3.582031-8-8-8s-8 3.582031-8 8v24l-9.601562-12.800781c-2.648438-3.535157-7.664063-4.25-11.199219-1.597657-3.535157 2.648438-4.25 7.664063-1.597657 11.199219l24 32c.101563.144531.277344.191407.390626.320313.105468.183594.222656.363281.351562.535156.441406.371094.921875.6875 1.433594.953125.296875.230469.609375.4375.933594.621094 1.03125.488281 2.152343.75 3.289062.769531.859375-.003906 1.710938-.140625 2.527344-.40625.089844-.042969.175781-.085938.257812-.136719.253906-.097656.480469-.257812.734375-.378906.636719-.3125 1.226563-.707031 1.761719-1.175781.109375-.101563.261719-.132813.375-.246094l24-24c3.121094-3.125 3.121094-8.1875 0-11.3125zm0 0" fill="#c8d952"/><path d="m64 176.5c-3.398438.003906-6.433594-2.140625-7.558594-5.347656-1.128906-3.207032-.105468-6.777344 2.550782-8.898438l80-64c3.449218-2.761718 8.488281-2.203125 11.246093 1.246094 2.761719 3.449219 2.203125 8.488281-1.246093 11.246094l-80 64c-1.417969 1.136718-3.175782 1.753906-4.992188 1.753906zm0 0" fill="#aabece"/><path d="m136 192.5c-3.304688 0-6.273438-2.03125-7.464844-5.113281-1.191406-3.085938-.367187-6.582031 2.082032-8.808594l88-80c3.269531-2.972656 8.328124-2.730469 11.304687.539063 2.972656 3.269531 2.730469 8.328124-.539063 11.304687l-88 80c-1.472656 1.335937-3.390624 2.078125-5.382812 2.078125zm0 0" fill="#aabece"/><path d="m160 240.5c-3.34375-.003906-6.335938-2.089844-7.496094-5.226562-1.160156-3.140626-.242187-6.667969 2.296875-8.84375l56-48c2.152344-1.988282 5.21875-2.644532 7.992188-1.703126 2.777343.941407 4.816406 3.320313 5.316406 6.207032.503906 2.886718-.613281 5.816406-2.910156 7.636718l-56 48c-1.445313 1.25-3.289063 1.933594-5.199219 1.929688zm0 0" fill="#aabece"/></svg>