<svg id="Flat-Expanded" enable-background="new 0 0 64 64" height="512" viewBox="0 0 64 64" width="512" xmlns="http://www.w3.org/2000/svg"><path d="m19 49-10.832 2.549c-3.614.85-6.168 4.075-6.168 7.787v2.664h46v-2.664c0-3.712-2.554-6.937-6.168-7.787l-10.832-2.549z" fill="#454a6d"/><path d="m19 49 3 13h6l3-13z" fill="#eae8e5"/><path d="m31 42v7l-6 3-6-3v-7z" fill="#edc3ae"/><path d="m25 45c-7.732 0-14-6.268-14-14v-10c0-7.732 6.268-14 14-14 7.732 0 14 6.268 14 14v10c0 7.732-6.268 14-14 14z" fill="#f4d4be"/><circle cx="19" cy="27" fill="#304b68" r="2"/><circle cx="31" cy="27" fill="#304b68" r="2"/><path d="m25 37c-1.813 0-3.507-.839-4.77-2.361l1.54-1.277c.876 1.056 2.023 1.638 3.23 1.638s2.354-.582 3.23-1.639l1.54 1.277c-1.263 1.523-2.957 2.362-4.77 2.362z" fill="#e55648"/><path d="m11 30c-2.209 0-4-1.791-4-4 0-2.209 1.791-4 4-4z" fill="#edc3ae"/><path d="m39 30c2.209 0 4-1.791 4-4 0-2.209-1.791-4-4-4z" fill="#edc3ae"/><path d="m10.999 23.001c2.762 0 5.001-2.239 5.001-5.002v-.076c0-1.072.852-1.923 1.905-1.923h7.095c3 0 3-4 3-4 1.105 0 2 .895 2 2 0 4.971 4.029 9 9 9h4v-6c0-7.18-5.82-13-13-13 0-1.105-.895-2-2-2h-11c-7.18 0-13 5.82-13 13v1.001c0 3.866 3.133 6.999 6.999 7z" fill="#d6713a"/><path d="m24 55-2 7h6l-2-7z" fill="#d63322"/><path d="m22 54 3 3 3-3-3-2z" fill="#f4462d"/><path d="m19 49-3 3 4 5 5-5z" fill="#f7f4f0"/><path d="m31 49 3 3-4 5-5-5z" fill="#f7f4f0"/><path d="m10.91 50.91 3.09 3.09-1 3 9 5-3-13z" fill="#33385c"/><path d="m36 54 1 3-9 5 3-13 8.09 1.91z" fill="#33385c"/><path d="m60 36c-1.105 0-2 .895-2 2 0-1.105-.895-2-2-2s-2 .895-2 2c0-1.105-.895-2-2-2s-2 .895-2 2v-10c0-1.105-.895-2-2-2s-2 .895-2 2v14h-2c-1.105 0-2 .895-2 2v3l4 7v8h16v-24c0-1.105-.895-2-2-2z" fill="#f4d4be"/><path d="m62 20h-3l-6 4v-4h-6v-18h15z" fill="#dbd8d5"/><path d="m55 13h-2v-2.781l4-1v-1.219h-5v1h-2v-3h9v4.781l-4 1z" fill="#304b68"/><path d="m53 15h2v2h-2z" fill="#304b68"/><g fill="#edc3ae"><path d="m52 50c0-2.209-1.791-4-4-4h-3 1c2.209 0 4-1.791 4-4h-6c-1.105 0-2 .895-2 2v3l4 7h2c2.209 0 4-1.791 4-4z"/><path d="m52 44c-1.105 0-2-.895-2-2v-4c0-1.105.895-2 2-2 1.105 0 2 .895 2 2v4c0 1.105-.895 2-2 2z"/><path d="m56 44c-1.105 0-2-.895-2-2v-4c0-1.105.895-2 2-2 1.105 0 2 .895 2 2v4c0 1.105-.895 2-2 2z"/><path d="m60 44c-1.105 0-2-.895-2-2v-4c0-1.105.895-2 2-2 1.105 0 2 .895 2 2v4c0 1.105-.895 2-2 2z"/></g></svg>